<svg width="29" height="29" viewBox="0 0 29 29" fill="none" xmlns="http://www.w3.org/2000/svg">
<circle cx="14.1556" cy="14.6556" r="13.6837" fill="#D7E5D4" stroke="#FCFCFC" stroke-width="0.943704"/>
<path d="M22.3988 8.74891C22.3996 8.168 22.2363 7.59918 21.9285 7.11076C21.6206 6.62233 21.1812 6.23505 20.6631 5.99544C20.1451 5.75582 19.5703 5.67405 19.0078 5.75993C18.4453 5.84582 17.9191 6.09572 17.4923 6.47962C17.0654 6.86352 16.7562 7.36511 16.6016 7.92415C16.447 8.4832 16.4537 9.07593 16.6209 9.63119C16.788 10.1864 17.1085 10.6806 17.5439 11.0544C17.9793 11.4281 18.511 11.6655 19.0753 11.7381V12.1436C19.0729 12.643 18.8776 13.1213 18.5318 13.4745C18.1861 13.8276 17.7179 14.0271 17.2289 14.0296H10.582C10.238 14.029 9.89744 14.0988 9.58033 14.2348C9.26321 14.3709 8.97598 14.5704 8.73559 14.8217V11.7381C9.48117 11.6422 10.1629 11.2596 10.6421 10.6683C11.1212 10.077 11.3618 9.32141 11.3147 8.55533C11.2677 7.78925 10.9365 7.07028 10.3888 6.54479C9.84103 6.01929 9.11779 5.72677 8.36632 5.72677C7.61484 5.72677 6.8916 6.01929 6.34384 6.54479C5.79608 7.07028 5.46497 7.78925 5.41791 8.55533C5.37085 9.32141 5.61138 10.077 6.09054 10.6683C6.56969 11.2596 7.25146 11.6422 7.99704 11.7381V17.0754C7.25146 17.1713 6.56969 17.5539 6.09054 18.1452C5.61138 18.7365 5.37085 19.4921 5.41791 20.2582C5.46497 21.0243 5.79608 21.7433 6.34384 22.2688C6.8916 22.7942 7.61484 23.0868 8.36632 23.0868C9.11779 23.0868 9.84103 22.7942 10.3888 22.2688C10.9365 21.7433 11.2677 21.0243 11.3147 20.2582C11.3618 19.4921 11.1212 18.7365 10.6421 18.1452C10.1629 17.5539 9.48117 17.1713 8.73559 17.0754V16.6699C8.73802 16.1705 8.93333 15.6922 9.27906 15.3391C9.6248 14.9859 10.093 14.7864 10.582 14.784H17.2289C17.9137 14.7815 18.5698 14.5025 19.0541 14.0079C19.5383 13.5133 19.8114 12.8431 19.8138 12.1436V11.7381C20.5278 11.6483 21.1848 11.2947 21.661 10.744C22.1372 10.1933 22.3997 9.48366 22.3988 8.74891ZM6.15066 8.74891C6.15066 8.30131 6.28061 7.86375 6.52407 7.49158C6.76753 7.11941 7.11356 6.82934 7.51842 6.65804C7.92328 6.48675 8.36877 6.44193 8.79857 6.52926C9.22836 6.61658 9.62315 6.83213 9.93302 7.14863C10.2429 7.46514 10.4539 7.86839 10.5394 8.3074C10.6249 8.7464 10.581 9.20145 10.4133 9.61498C10.2456 10.0285 9.96163 10.382 9.59727 10.6306C9.2329 10.8793 8.80453 11.0121 8.36632 11.0121C7.77944 11.0096 7.21729 10.7703 6.8023 10.3465C6.38731 9.92257 6.15309 9.34837 6.15066 8.74891ZM10.582 20.0646C10.582 20.5122 10.452 20.9498 10.2086 21.322C9.9651 21.6941 9.61907 21.9842 9.21421 22.1555C8.80935 22.3268 8.36386 22.3716 7.93406 22.2843C7.50427 22.197 7.10948 21.9814 6.79961 21.6649C6.48975 21.3484 6.27873 20.9451 6.19324 20.5061C6.10775 20.0671 6.15162 19.6121 6.31932 19.1986C6.48702 18.785 6.771 18.4316 7.13537 18.1829C7.49973 17.9342 7.9281 17.8015 8.36632 17.8015C8.95319 17.804 9.51534 18.0432 9.93033 18.4671C10.3453 18.891 10.5795 19.4652 10.582 20.0646ZM19.4446 11.0121C19.0064 11.0121 18.578 10.8793 18.2136 10.6306C17.8493 10.382 17.5653 10.0285 17.3976 9.61498C17.2299 9.20145 17.186 8.7464 17.2715 8.3074C17.357 7.86839 17.568 7.46514 17.8779 7.14863C18.1877 6.83213 18.5825 6.61658 19.0123 6.52926C19.4421 6.44193 19.8876 6.48675 20.2925 6.65804C20.6973 6.82934 21.0434 7.11941 21.2868 7.49158C21.5303 7.86375 21.6602 8.30131 21.6602 8.74891C21.6578 9.34837 21.4236 9.92257 21.0086 10.3465C20.5936 10.7703 20.0315 11.0096 19.4446 11.0121Z" fill="#1A271D"/>
<path d="M6.9043 19.8722L7.97445 20.4241M6.9043 19.8722V19.8453L7.85445 19.3394M6.9043 19.8722V20.8414L7.97445 21.4068M7.97445 20.4241L9.7043 19.5087M7.97445 20.4241V21.4068M9.7043 19.5087L8.6488 18.9164M9.7043 19.5087V20.478L7.97445 21.4068M8.6488 18.9164V18.6068L7.84252 19.0107L7.85445 19.3394M8.6488 18.9164V19.4145L8.74366 19.3809L8.82632 19.4564L7.87568 19.9474L7.75169 19.8722L7.87568 19.7963L7.85445 19.3394" stroke="#1A271D" stroke-width="0.226131"/>
</svg>
